<?xml version="1.0" encoding="utf-8"?>
<!-- Generator: Adobe Illustrator 17.1.0, SVG Export Plug-In . SVG Version: 6.00 Build 0)  -->
<!DOCTYPE svg PUBLIC "-//W3C//DTD SVG 1.1//EN" "http://www.w3.org/Graphics/SVG/1.1/DTD/svg11.dtd">
<svg version="1.1" id="Layer_1" xmlns="http://www.w3.org/2000/svg" xmlns:xlink="http://www.w3.org/1999/xlink" x="0px" y="0px"
	 viewBox="0 0 50 50" enable-background="new 0 0 50 50" xml:space="preserve">
<g>
	<path opacity="0.8" fill="#FFFFFF" d="M23.8,35.3c1.1,0,2,0.4,2.8,0.9l9-19.2c-3.5-1.8-7.6-2.8-11.8-2.8c-4.2,0-8.3,1-11.8,2.8
		l9,19.2C21.7,35.7,22.7,35.3,23.8,35.3z" transform = "translate(0, 50) rotate(270 0 0)"/>
	<path opacity="0.8" fill="none" stroke="#ED2224" stroke-miterlimit="10" d="M23.8,35.3c1.1,0,2,0.4,2.8,0.9l9-19.2
		c-3.5-1.8-7.6-2.8-11.8-2.8c-4.2,0-8.3,1-11.8,2.8l9,19.2C21.7,35.7,22.7,35.3,23.8,35.3z" transform = "translate(0, 50) rotate(270 0 0)"/>
</g>
</svg>
